inDegrees=yes
nColumns=22
nRows=18
DataType=double
version=3
OpenSimVersion=4.5
endheader
time	pelvis_tilt	pelvis_list	pelvis_rotation	pelvis_tx	pelvis_ty	pelvis_tz	hip_flexion_r	hip_adduction_r	hip_rotation_r	knee_angle_r	ankle_angle_r	mtp_angle_r	hip_flexion_l	hip_adduction_l	hip_rotation_l	knee_angle_l	ankle_angle_l	mtp_angle_l	lumbar_extension	lumbar_bending	lumbar_rotation
0	1.673328626830439	4.686987482996582	-0.05967445559297091	0	0.8466962854391682	-0.01352843731190047	30.30899804186743	-2.217298068169692	-4.103070814323838	-17.04280367772629	-2.566080064509471	0	-17.74451794296318	8.255083819334063	-8.551678195498257	-12.042129003655	12.22612132242282	0	-7.125916640177945	-7.044095948505483	-6.895688550573266
0.01045165715081033	1.488152319711475	4.139112165952915	0.2580430733593965	0.01607096358526172	0.8460823876351362	-0.01336023758023305	29.73712355561271	-1.683460764450145	-3.933791826561229	-17.85537663645232	-2.172357169123213	0	-18.13823900853317	7.455043724301489	-8.603581307142631	-12.84731929075924	10.79734497805456	0	-6.562187034686067	-6.28115932282947	-6.873857506645641
0.02090331430162067	1.281450329530516	3.445875620912839	0.5073392720768092	0.03224788690654545	0.8458427962003253	-0.01300672616469939	29.29479237484411	-0.9370878051041107	-3.657443312691521	-18.83161411931078	-1.859729729190269	0	-18.42771768154133	6.49925503898796	-8.637676838497025	-13.75386213784001	9.175614510855874	0	-5.966926442870824	-5.356176188829017	-6.791759079053649
0.031354971452431	1.059623146975408	2.561515531165154	0.6583122175712838	0.04834582913574414	0.845991328598021	-0.01242284223047747	29.0566400430509	0.07810136321325667	-3.248035840238211	-19.97644002436305	-2.113769481388693	0	-18.57330889912145	5.348717598575681	-8.675195544023616	-14.83615317168357	7.418461837748954	0	-5.380152294239794	-4.213538799162439	-6.632934855576202
0.04180662860324134	0.840911308063199	1.564904291115918	0.7098275147087719	0.06437813780891666	0.8464950498869128	-0.01160409308314185	28.98074834328831	1.281283342981531	-2.663011182633061	-21.36966617293892	-2.360868429436729	0	-18.5713944631202	4.083186103342386	-8.702333656231945	-16.15298086755737	5.527175006158536	0	-4.819132677910734	-2.944385763108861	-6.410951605694819
0.05225828575405167	0.6417772910038828	0.5896652141483941	0.6696091720570514	0.0803861267436401	0.8473239261511449	-0.01056787426547694	28.94258164961251	2.527255251121453	-1.886267175729057	-22.91070820485371	-2.238181280659601	0	-18.38245732003471	2.83028506549227	-8.681200807555024	-17.82950908278325	3.501139502259554	0	-4.290397769304128	-1.704556619915985	-6.143538551740246
0.06270994290486201	0.4674225353872775	-0.255829105898622	0.5500728846790978	0.09637825160624214	0.8484789462171393	-0.009357774115503927	28.76516820953298	3.677252629997393	-1.039149243410621	-24.2917968786988	-1.820764963862302	0	-17.91356613347846	1.689343648561332	-8.549553400750382	-20.06351241878492	1.413353077598747	0	-3.786514923287439	-0.6200112804408257	-5.840267288173255
0.07316160005567234	0.3107636124622123	-0.9407844777540475	0.363532103601594	0.1122502451178328	0.8499432602628221	-0.008027901522057509	28.34619356290555	4.665604977330948	-0.2946207652506294	-25.30134839000598	-1.186005280442041	0	-17.03270592283144	0.6893557956735585	-8.285344775844349	-23.10110007923766	-0.4352249866128978	0	-3.304848915249301	0.2746692521368996	-5.506625202922041
0.08361325720648267	0.1602054612992041	-1.489083543977889	0.1403484789692165	0.1278523235532829	0.8516543066390897	-0.006670669284153104	27.66969083842841	5.479219348029623	0.2189069392477938	-25.84327810945455	-0.4588552622257943	0	-15.68360721482718	-0.1870864068279289	-7.916187365267931	-26.96517266670452	-2.038953182246337	0	-2.84845483957759	1.009602520706988	-5.155968017886461
0.094064914357293	0.003921979476153167	-1.951512214105326	-0.07673298780642612	0.1430320114101118	0.8535064192487478	-0.005347960702956412	26.82066136649822	6.1647044173731	0.5746680595354793	-26.02009634854981	0.2914661574612624	0	-13.90160636862528	-0.9788475789719592	-7.384212177260467	-31.45531028470185	-3.543279574785715	0	-2.424433950469935	1.63509978624509	-4.804828016200581
0.1045165715081033	-0.1622586613007893	-2.342286836641134	-0.2520203409116691	0.1576791211277113	0.8553832909922593	-0.004086866609717551	25.88822973029876	6.730867328405915	0.7969811443406218	-25.95790772293132	1.009133280592747	0	-11.78325563717071	-1.681403975355572	-6.669343416990261	-36.32566421580459	-4.883313461902814	0	-2.042682057219696	2.149881781180852	-4.461083807590789
0.1149682286589137	-0.340741481896158	-2.735942987082824	-0.3566367157480528	0.1718064904794721	0.8572479351672406	-0.00293666278136878	24.91900930719349	7.245822987114259	0.8701159411123685	-25.7203379770057	1.645486960898114	0	-9.465329050450919	-2.372199605403779	-5.863693108078978	-41.17295613420569	-6.597963703342826	0	-1.697065648907748	2.637993417634672	-4.137445942077253
0.125419885809724	-0.5299825141000855	-3.119033892557123	-0.3845015869913014	0.1854853401878633	0.859147449626167	-0.001911088836524029	23.92115229290411	7.700044172937448	0.8085424923781108	-25.32555606723839	2.167936802211397	0	-7.091281085218453	-3.045884673582545	-5.056037088054194	-45.53019503673406	-8.637682197735346	0	-1.379665853576804	3.083960616201841	-3.83609992881821
0.1358715429605343	-0.7282067506901821	-3.464675345901249	-0.3382344176802226	0.1987341842444145	0.8611217494144515	-0.00101917153954387	22.90370735527421	8.077178989117131	0.6527033586541444	-24.79847136106851	2.590142401603322	0	-4.710076991341277	-3.682838275792051	-4.293326883998367	-49.24346296653633	-10.34361195669496	0	-1.092307806814082	3.460734231331419	-3.551936985162515
0.1463232001113447	-0.9336769194788536	-3.74736719890309	-0.2272587546628153	0.2115345764696206	0.8631681388156716	-0.0002604885653051346	21.8724860223289	8.364011262143793	0.4494583087230506	-24.15490333037084	2.924754353116847	0	-2.29325901811794	-4.25911197453039	-3.597130684925396	-52.42458969694567	-10.87086119500379	0	-0.840964440907118	3.743734246478156	-3.277364559753505
0.156774857262155	-1.143767160213958	-3.948714289618508	-0.06573837679888349	0.2238761617923483	0.8652721858097915	0.0003764791770704504	20.82796878701578	8.553215041638813	0.2387447293248156	-23.40763330162597	3.200293706472418	0	0.2105018121340994	-4.751516492304374	-2.977419153182436	-55.20925351184642	-10.52022413168329	0	-0.630794305326883	3.916139291667854	-3.00366422115877
0.1672265144129653	-1.354897462149849	-4.063617561106613	0.1290281995794172	0.235773149698285	0.867406761558389	0.0009083614693399738	19.76882885108972	8.648232834163547	0.04446346796668468	-22.56876288229363	3.435226859707352	0	2.830314030544009	-5.143379000666261	-2.436258736576249	-57.69562021400392	-9.785244117636005	0	-0.4648793388053499	3.976585763770861	-2.72139133709005
0.1776781715637757	-1.562814155612581	-4.087247840970668	0.3406402896438618	0.2472645633609927	0.8695355008937071	0.00135884375997542	18.69793230957113	8.650302766618175	-0.1206481028055007	-21.663928576052	3.656123734190714	0	5.56051524708541	-5.41789043170979	-1.977683188989016	-59.93367216615452	-8.766323717044173	0	-0.3434091531979107	3.921780282666369	-2.425150924875909
